<svg width="433" height="368" viewBox="0 0 433 368" fill="none" xmlns="http://www.w3.org/2000/svg">
<!-- <svg width="200" height="100" viewBox="0 0 200 100" fill="none" xmlns="http://www.w3.org/2000/svg"> -->
<g filter="url(#filter0_df)">
<g filter="url(#filter1_d)">
<path d="M114.631 270.254C113.784 270.322 112.928 270.357 112.064 270.357H51.7705C47.6204 270.373 43.508 269.569 39.6692 267.991C35.8305 266.414 32.341 264.094 29.4009 261.165C26.4608 258.235 24.128 254.755 22.5362 250.922C20.9444 247.089 20.125 242.98 20.125 238.829C20.125 234.679 20.9444 230.57 22.5362 226.737C24.128 222.904 26.4608 219.423 29.4009 216.494C32.341 213.565 35.8305 211.245 39.6692 209.668C43.508 208.09 47.6204 207.286 51.7705 207.302H74.2509C81.5391 191.266 98.3248 180.043 117.866 180.043C144.096 180.043 165.359 200.261 165.359 225.2C165.359 250.139 144.096 270.357 117.866 270.357C116.779 270.357 115.701 270.323 114.631 270.254Z" fill="url(#paint0_linear)"/>
<path d="M117.866 269.919C121.06 269.919 124.252 269.613 127.354 269.009C130.376 268.421 133.348 267.544 136.189 266.402C138.977 265.28 141.667 263.892 144.183 262.276C146.674 260.676 149.017 258.838 151.146 256.813C153.275 254.789 155.208 252.562 156.89 250.194C158.589 247.803 160.047 245.248 161.226 242.599C162.426 239.901 163.348 237.078 163.965 234.208C164.599 231.264 164.92 228.233 164.92 225.2C164.92 222.167 164.599 219.136 163.965 216.191C163.348 213.322 162.426 210.499 161.226 207.801C160.047 205.152 158.589 202.597 156.89 200.206C155.208 197.838 153.275 195.611 151.146 193.587C149.017 191.562 146.674 189.725 144.183 188.124C141.667 186.508 138.977 185.12 136.189 183.998C133.348 182.856 130.376 181.979 127.354 181.391C124.252 180.787 121.06 180.481 117.866 180.481C108.497 180.481 99.448 183.091 91.6984 188.028C87.9629 190.408 84.6061 193.281 81.7213 196.566C78.8183 199.872 76.4389 203.545 74.6493 207.483L74.5325 207.74H74.2502H51.77C47.5728 207.74 43.5014 208.562 39.6688 210.183C37.8267 210.962 36.05 211.926 34.388 213.049C32.7416 214.161 31.1935 215.439 29.7865 216.846C28.3795 218.253 27.1022 219.801 25.9899 221.447C24.8671 223.109 23.9027 224.886 23.1236 226.728C21.5025 230.561 20.6806 234.632 20.6806 238.829C20.6806 243.027 21.5025 247.098 23.1236 250.931C23.9027 252.773 24.8671 254.549 25.9899 256.211C27.1022 257.858 28.3795 259.406 29.7865 260.813C31.1935 262.22 32.7416 263.497 34.388 264.609C36.05 265.732 37.8267 266.697 39.6688 267.476C43.5014 269.097 47.5728 269.919 51.77 269.919H112.063C112.906 269.919 113.758 269.885 114.596 269.817L114.628 269.815L114.659 269.817C115.72 269.884 116.799 269.919 117.866 269.919ZM117.866 270.357C116.779 270.357 115.7 270.322 114.631 270.254C113.785 270.322 112.927 270.357 112.063 270.357H51.77C34.3578 270.357 20.2422 256.242 20.2422 238.829C20.2422 221.417 34.3578 207.301 51.77 207.301H74.2502C81.5387 191.264 98.3235 180.043 117.866 180.043C144.095 180.043 165.359 200.261 165.359 225.2C165.359 250.139 144.095 270.357 117.866 270.357Z" fill="white" fill-opacity="0.5"/>
<path d="M320.602 335.408C319.404 335.505 318.193 335.553 316.971 335.554H231.695C225.826 335.576 220.009 334.439 214.58 332.208C209.151 329.976 204.215 326.695 200.057 322.553C195.899 318.41 192.599 313.487 190.348 308.066C188.096 302.645 186.938 296.833 186.938 290.963C186.937 285.093 188.096 279.281 190.348 273.86C192.599 268.439 195.899 263.516 200.057 259.373C204.215 255.23 209.151 251.949 214.58 249.718C220.009 247.487 225.826 246.35 231.695 246.372H263.49C273.798 223.692 297.539 207.818 325.178 207.818C362.275 207.818 392.349 236.413 392.349 271.686C392.349 306.959 362.275 335.554 325.178 335.554C323.64 335.554 322.115 335.505 320.602 335.408Z" fill="url(#paint1_linear)"/>
<path d="M325.177 334.934C329.695 334.934 334.21 334.501 338.596 333.648C342.871 332.816 347.075 331.575 351.092 329.96C355.036 328.374 358.84 326.41 362.398 324.125C365.922 321.861 369.236 319.261 372.247 316.398C375.258 313.535 377.992 310.386 380.372 307.036C382.774 303.655 384.837 300.041 386.504 296.294C388.201 292.479 389.504 288.486 390.378 284.427C391.274 280.262 391.729 275.976 391.729 271.686C391.729 267.396 391.274 263.11 390.378 258.945C389.504 254.886 388.201 250.893 386.504 247.078C384.837 243.331 382.774 239.717 380.372 236.336C377.992 232.987 375.258 229.837 372.247 226.974C369.236 224.111 365.922 221.511 362.398 219.248C358.84 216.962 355.036 214.999 351.092 213.413C347.075 211.797 342.871 210.556 338.596 209.725C334.21 208.871 329.695 208.438 325.177 208.438C311.926 208.438 299.128 212.129 288.167 219.112C282.884 222.478 278.136 226.541 274.056 231.188C269.951 235.864 266.585 241.059 264.054 246.628L263.889 246.991H263.49H231.695C225.759 246.991 220 248.154 214.579 250.447C211.974 251.549 209.461 252.913 207.111 254.501C204.782 256.074 202.592 257.88 200.603 259.87C198.613 261.86 196.806 264.05 195.233 266.378C193.645 268.729 192.281 271.242 191.179 273.847C188.886 279.268 187.724 285.026 187.724 290.963C187.724 296.899 188.886 302.657 191.179 308.078C192.281 310.683 193.645 313.196 195.233 315.547C196.806 317.876 198.613 320.065 200.603 322.055C202.592 324.045 204.782 325.852 207.111 327.425C209.461 329.013 211.974 330.377 214.579 331.479C220 333.771 225.759 334.934 231.695 334.934H316.971C318.163 334.934 319.368 334.886 320.553 334.79L320.597 334.787L320.642 334.789C322.142 334.885 323.668 334.934 325.177 334.934ZM325.177 335.554C323.64 335.554 322.114 335.505 320.602 335.408C319.405 335.505 318.193 335.554 316.971 335.554H231.695C207.068 335.554 187.104 315.59 187.104 290.963C187.104 266.336 207.068 246.371 231.695 246.371H263.49C273.798 223.689 297.538 207.818 325.177 207.818C362.275 207.818 392.349 236.413 392.349 271.686C392.349 306.959 362.275 335.554 325.177 335.554Z" fill="white" fill-opacity="0.5"/>
<path d="M300.673 165.169C299.384 165.273 298.083 165.325 296.769 165.326H205.091C198.78 165.349 192.527 164.127 186.69 161.728C180.853 159.33 175.548 155.802 171.077 151.348C166.607 146.894 163.059 141.602 160.639 135.774C158.219 129.946 156.973 123.697 156.973 117.387C156.973 111.076 158.219 104.828 160.639 99C163.059 93.172 166.607 87.8793 171.077 83.4254C175.548 78.9715 180.853 75.4441 186.69 73.0455C192.527 70.6469 198.78 69.4242 205.091 69.4478H239.273C250.355 45.0657 275.878 28 305.592 28C345.475 28 377.806 58.7417 377.806 96.663C377.806 134.584 345.475 165.326 305.592 165.326C303.939 165.326 302.299 165.274 300.673 165.169Z" fill="url(#paint2_linear)"/>
<path d="M305.591 164.659C310.448 164.659 315.302 164.194 320.017 163.277C324.612 162.383 329.132 161.049 333.451 159.312C337.691 157.606 341.781 155.496 345.606 153.038C349.395 150.605 352.957 147.81 356.195 144.732C359.432 141.654 362.37 138.268 364.929 134.667C367.511 131.032 369.729 127.147 371.521 123.119C373.346 119.017 374.747 114.724 375.686 110.36C376.65 105.883 377.139 101.274 377.139 96.6627C377.139 92.0511 376.65 87.4426 375.686 82.9652C374.747 78.6014 373.346 74.3091 371.521 70.2072C369.729 66.179 367.511 62.2937 364.929 58.659C362.37 55.0581 359.432 51.6718 356.195 48.5941C352.957 45.5159 349.395 42.7211 345.606 40.2875C341.781 37.8302 337.691 35.7196 333.451 34.0144C329.132 32.2775 324.612 30.9434 320.017 30.0494C315.302 29.1319 310.448 28.6666 305.591 28.6666C291.344 28.6666 277.586 32.6346 265.802 40.1417C260.122 43.7603 255.018 48.1282 250.632 53.1239C246.217 58.1511 242.6 63.736 239.878 69.7234L239.701 70.1142H239.272H205.09C198.708 70.1142 192.517 71.364 186.689 73.8289C183.888 75.0136 181.187 76.48 178.66 78.1872C176.156 79.8785 173.802 81.8207 171.663 83.9601C169.524 86.0994 167.581 88.4534 165.89 90.9568C164.183 93.4839 162.716 96.1855 161.532 98.9864C159.067 104.814 157.817 111.005 157.817 117.387C157.817 123.769 159.067 129.96 161.532 135.787C162.716 138.588 164.183 141.29 165.89 143.817C167.581 146.32 169.524 148.674 171.663 150.814C173.802 152.953 176.156 154.895 178.66 156.586C181.187 158.294 183.888 159.76 186.689 160.945C192.517 163.41 198.708 164.659 205.09 164.659H296.768C298.05 164.659 299.345 164.607 300.619 164.505L300.667 164.501L300.715 164.504C302.328 164.607 303.968 164.659 305.591 164.659ZM305.591 165.326C303.938 165.326 302.297 165.273 300.672 165.169C299.385 165.273 298.081 165.326 296.768 165.326H205.09C178.614 165.326 157.15 143.863 157.15 117.387C157.15 90.9108 178.614 69.4476 205.09 69.4476H239.272C250.354 45.0627 275.876 28 305.591 28C345.474 28 377.805 58.7417 377.805 96.6627C377.805 134.584 345.474 165.326 305.591 165.326Z" fill="white" fill-opacity="0.5"/>
</g>
</g>
<defs>
<filter id="filter0_df" x="0.125" y="0" width="432.224" height="367.554" filterUnits="userSpaceOnUse" color-interpolation-filters="sRGB">
<!-- <filter id="filter0_df" x="0.125" y="0" width="200" height="100" filterUnits="userSpaceOnUse" color-interpolation-filters="sRGB"> -->
<feFlood flood-opacity="0" result="BackgroundImageFix"/>
<feColorMatrix in="SourceAlpha" type="matrix" values="0 0 0 0 0 0 0 0 0 0 0 0 0 0 0 0 0 0 127 0"/>
<feOffset dx="10" dy="2"/>
<feGaussianBlur stdDeviation="15"/>
<feColorMatrix type="matrix" values="0 0 0 0 0 0 0 0 0 0 0 0 0 0 0 0 0 0 0.25 0"/>
<feBlend mode="normal" in2="BackgroundImageFix" result="effect1_dropShadow"/>
<feBlend mode="normal" in="SourceGraphic" in2="effect1_dropShadow" result="shape"/>
<feGaussianBlur stdDeviation="2" result="effect2_foregroundBlur"/>
</filter>
<filter id="filter1_d" x="0.125" y="0" width="432.224" height="367.554" filterUnits="userSpaceOnUse" color-interpolation-filters="sRGB">
<!-- <filter id="filter1_d" x="0.125" y="0" width="200" height="100" filterUnits="userSpaceOnUse" color-interpolation-filters="sRGB"> -->
<feFlood flood-opacity="0" result="BackgroundImageFix"/>
<feColorMatrix in="SourceAlpha" type="matrix" values="0 0 0 0 0 0 0 0 0 0 0 0 0 0 0 0 0 0 127 0"/>
<feOffset dx="10" dy="2"/>
<feGaussianBlur stdDeviation="15"/>
<feColorMatrix type="matrix" values="0 0 0 0 0.258824 0 0 0 0 0.627451 0 0 0 0 0.941176 0 0 0 0.596 0"/>
<feBlend mode="normal" in2="BackgroundImageFix" result="effect1_dropShadow"/>
<feBlend mode="normal" in="SourceGraphic" in2="effect1_dropShadow" result="shape"/>
</filter>
<linearGradient id="paint0_linear" x1="78.9448" y1="191.423" x2="107.899" y2="275.253" gradientUnits="userSpaceOnUse">
<stop stop-color="white" stop-opacity="0.596"/>
<stop offset="1" stop-color="#F7F7F7" stop-opacity="0.204"/>
</linearGradient>
<linearGradient id="paint1_linear" x1="270.129" y1="223.913" x2="311.08" y2="342.479" gradientUnits="userSpaceOnUse">
<stop stop-color="white" stop-opacity="0.596"/>
<stop offset="1" stop-color="#F7F7F7" stop-opacity="0.204"/>
</linearGradient>
<linearGradient id="paint2_linear" x1="246.41" y1="45.3031" x2="290.436" y2="172.771" gradientUnits="userSpaceOnUse">
<stop stop-color="white" stop-opacity="0.596"/>
<stop offset="1" stop-color="#F7F7F7" stop-opacity="0.204"/>
</linearGradient>
</defs>
</svg>
