<svg width="392" height="272" viewBox="0 0 392 272" fill="none" xmlns="http://www.w3.org/2000/svg">
<g filter="url(#filter0_df)">
<g filter="url(#filter1_d)">
<path d="M235.562 233.765C233.629 233.92 231.676 233.999 229.705 234H92.1812C82.7149 234.035 73.3348 232.201 64.579 228.603C55.8232 225.005 47.8639 219.714 41.1577 213.032C34.4516 206.351 29.1305 198.412 25.4997 189.669C21.869 180.927 20 171.554 20 162.087C20 152.621 21.869 143.248 25.4997 134.506C29.1305 125.763 34.4516 117.824 41.1577 111.143C47.8639 104.461 55.8232 99.17 64.579 95.5718C73.3348 91.9737 82.7149 90.1397 92.1812 90.175H143.457C160.081 53.6 198.368 28 242.941 28C302.768 28 351.268 74.115 351.268 131C351.268 187.885 302.768 234 242.941 234C240.461 234 238.001 233.922 235.562 233.765Z" fill="url(#paint0_linear)"/>
<path d="M242.941 233C250.227 233 257.508 232.302 264.582 230.926C271.475 229.585 278.255 227.584 284.734 224.978C291.095 222.42 297.229 219.254 302.968 215.568C308.651 211.917 313.995 207.725 318.851 203.107C323.707 198.49 328.115 193.411 331.953 188.009C335.827 182.557 339.154 176.728 341.842 170.686C344.579 164.532 346.682 158.093 348.09 151.547C349.536 144.831 350.269 137.917 350.269 131C350.269 124.082 349.536 117.169 348.09 110.452C346.682 103.906 344.579 97.4673 341.842 91.3142C339.154 85.2716 335.827 79.4433 331.953 73.991C328.115 68.5893 323.707 63.5095 318.851 58.8928C313.995 54.2752 308.651 50.0829 302.968 46.4323C297.229 42.7461 291.095 39.5801 284.734 37.0221C278.255 34.4165 271.475 32.4154 264.582 31.0742C257.508 29.6979 250.227 29 242.941 29C221.57 29 200.931 34.9523 183.255 46.2135C174.734 51.6418 167.078 58.1939 160.498 65.6878C153.876 73.2291 148.449 81.6069 144.367 90.5885L144.101 91.1747H143.457H92.1812C82.6077 91.1747 73.321 93.0495 64.5792 96.747C60.3776 98.5242 56.325 100.724 52.5341 103.285C48.7789 105.822 45.2477 108.735 42.0385 111.945C38.8293 115.154 35.9157 118.685 33.3788 122.44C30.8177 126.231 28.618 130.284 26.8408 134.485C23.1433 143.227 21.2686 152.514 21.2686 162.087C21.2686 171.661 23.1433 180.948 26.8408 189.689C28.618 193.891 30.8177 197.944 33.3788 201.735C35.9157 205.49 38.8293 209.021 42.0385 212.23C45.2477 215.439 48.7789 218.353 52.5341 220.89C56.325 223.451 60.3776 225.651 64.5792 227.428C73.321 231.125 82.6077 233 92.1812 233H229.706C231.629 233 233.572 232.922 235.483 232.768L235.555 232.762L235.627 232.767C238.046 232.922 240.507 233 242.941 233ZM242.941 234C240.462 234 238.001 233.921 235.563 233.765C233.632 233.92 231.676 234 229.706 234H92.1812C52.4651 234 20.2686 201.803 20.2686 162.087C20.2686 122.371 52.4651 90.1747 92.1812 90.1747H143.457C160.081 53.5954 198.366 28 242.941 28C302.769 28 351.269 74.1151 351.269 131C351.269 187.885 302.769 234 242.941 234Z" fill="white" fill-opacity="0.5"/>
</g>
</g>
<g filter="url(#filter2_f)">
<path d="M138.668 136.237C139.196 136.72 128.128 160.528 121.696 167.927C115.264 175.327 107.351 178.981 104.024 176.089C100.698 173.197 103.215 164.854 109.647 157.455C116.079 150.056 138.138 135.754 138.668 136.237Z" fill="#42A0F0"/>
<path d="M110.793 162.425C111.439 163.459 113.676 163.227 115.789 161.906C117.902 160.586 119.092 158.677 118.445 157.643C117.799 156.609 115.562 156.841 113.449 158.162C111.336 159.482 110.146 161.391 110.793 162.425Z" fill="white"/>
<path d="M206.668 136.237C207.196 136.72 196.128 160.528 189.696 167.927C183.264 175.327 175.351 178.981 172.024 176.089C168.698 173.197 171.215 164.854 177.647 157.455C184.079 150.056 206.138 135.754 206.668 136.237Z" fill="#42A0F0"/>
<path d="M178.793 162.425C179.439 163.459 181.676 163.227 183.789 161.906C185.902 160.586 187.092 158.677 186.445 157.643C185.799 156.609 183.562 156.841 181.449 158.162C179.336 159.482 178.146 161.391 178.793 162.425Z" fill="white"/>
<path d="M274.668 136.237C275.196 136.72 264.128 160.528 257.696 167.927C251.264 175.327 243.351 178.981 240.024 176.089C236.698 173.197 239.215 164.854 245.647 157.455C252.079 150.056 274.138 135.754 274.668 136.237Z" fill="#42A0F0"/>
<path d="M246.793 162.425C247.439 163.459 249.676 163.227 251.789 161.906C253.902 160.586 255.092 158.677 254.445 157.643C253.799 156.609 251.562 156.841 249.449 158.162C247.336 159.482 246.146 161.391 246.793 162.425Z" fill="white"/>
<path d="M214.668 186.237C215.196 186.72 204.128 210.528 197.696 217.927C191.264 225.327 183.351 228.981 180.024 226.089C176.698 223.197 179.215 214.854 185.647 207.455C192.079 200.056 214.138 185.754 214.668 186.237Z" fill="#42A0F0"/>
<path d="M186.793 212.425C187.439 213.459 189.676 213.227 191.789 211.906C193.902 210.586 195.092 208.677 194.445 207.643C193.799 206.609 191.562 206.841 189.449 208.162C187.336 209.482 186.146 211.391 186.793 212.425Z" fill="white"/>
<path d="M297.668 186.237C298.196 186.72 287.128 210.528 280.696 217.927C274.264 225.327 266.351 228.981 263.024 226.089C259.698 223.197 262.215 214.854 268.647 207.455C275.079 200.056 297.138 185.754 297.668 186.237Z" fill="#42A0F0"/>
<path d="M269.793 212.425C270.439 213.459 272.676 213.227 274.789 211.906C276.902 210.586 278.092 208.677 277.445 207.643C276.799 206.609 274.562 206.841 272.449 208.162C270.336 209.482 269.146 211.391 269.793 212.425Z" fill="white"/>
<path d="M237.668 222.237C238.196 222.72 227.128 246.528 220.696 253.927C214.264 261.327 206.351 264.981 203.024 262.089C199.698 259.197 202.215 250.854 208.647 243.455C215.079 236.056 237.138 221.754 237.668 222.237Z" fill="#42A0F0"/>
<path d="M209.793 248.425C210.439 249.459 212.676 249.227 214.789 247.906C216.902 246.586 218.092 244.677 217.445 243.643C216.799 242.609 214.562 242.841 212.449 244.162C210.336 245.482 209.146 247.391 209.793 248.425Z" fill="white"/>
<path d="M161.668 222.237C162.196 222.72 151.128 246.528 144.696 253.927C138.264 261.327 130.351 264.981 127.024 262.089C123.698 259.197 126.215 250.854 132.647 243.455C139.079 236.056 161.138 221.754 161.668 222.237Z" fill="#42A0F0"/>
<path d="M133.793 248.425C134.439 249.459 136.676 249.227 138.789 247.906C140.902 246.586 142.092 244.677 141.445 243.643C140.799 242.609 138.562 242.841 136.449 244.162C134.336 245.482 133.146 247.391 133.793 248.425Z" fill="white"/>
<path d="M138.668 186.237C139.196 186.72 128.128 210.528 121.696 217.927C115.264 225.327 107.351 228.981 104.024 226.089C100.698 223.197 103.215 214.854 109.647 207.455C116.079 200.056 138.138 185.754 138.668 186.237Z" fill="#42A0F0"/>
<path d="M110.793 212.425C111.439 213.459 113.676 213.227 115.789 211.906C117.902 210.586 119.092 208.677 118.445 207.643C117.799 206.609 115.562 206.841 113.449 208.162C111.336 209.482 110.146 211.391 110.793 212.425Z" fill="white"/>
</g>
<defs>
<filter id="filter0_df" x="0" y="0" width="391.269" height="266.001" filterUnits="userSpaceOnUse" color-interpolation-filters="sRGB">
<feFlood flood-opacity="0" result="BackgroundImageFix"/>
<feColorMatrix in="SourceAlpha" type="matrix" values="0 0 0 0 0 0 0 0 0 0 0 0 0 0 0 0 0 0 127 0"/>
<feOffset dx="10" dy="2"/>
<feGaussianBlur stdDeviation="15"/>
<feColorMatrix type="matrix" values="0 0 0 0 0.258824 0 0 0 0 0.627451 0 0 0 0 0.941176 0 0 0 0.596 0"/>
<feBlend mode="normal" in2="BackgroundImageFix" result="effect1_dropShadow"/>
<feBlend mode="normal" in="SourceGraphic" in2="effect1_dropShadow" result="shape"/>
<feGaussianBlur stdDeviation="2" result="effect2_foregroundBlur"/>
</filter>
<filter id="filter1_d" x="0" y="0" width="391.269" height="266.001" filterUnits="userSpaceOnUse" color-interpolation-filters="sRGB">
<feFlood flood-opacity="0" result="BackgroundImageFix"/>
<feColorMatrix in="SourceAlpha" type="matrix" values="0 0 0 0 0 0 0 0 0 0 0 0 0 0 0 0 0 0 127 0"/>
<feOffset dx="10" dy="2"/>
<feGaussianBlur stdDeviation="15"/>
<feColorMatrix type="matrix" values="0 0 0 0 0.501961 0 0 0 0 0.501961 0 0 0 0 0.501961 0 0 0 0.302 0"/>
<feBlend mode="normal" in2="BackgroundImageFix" result="effect1_dropShadow"/>
<feBlend mode="normal" in="SourceGraphic" in2="effect1_dropShadow" result="shape"/>
</filter>
<filter id="filter2_f" x="94" y="127" width="213.691" height="144.326" filterUnits="userSpaceOnUse" color-interpolation-filters="sRGB">
<feFlood flood-opacity="0" result="BackgroundImageFix"/>
<feBlend mode="normal" in="SourceGraphic" in2="BackgroundImageFix" result="shape"/>
<feGaussianBlur stdDeviation="2" result="effect1_foregroundBlur"/>
</filter>
<linearGradient id="paint0_linear" x1="154.164" y1="53.9561" x2="220.206" y2="245.168" gradientUnits="userSpaceOnUse">
<stop stop-color="white" stop-opacity="0.596"/>
<stop offset="1" stop-color="#F7F7F7" stop-opacity="0.204"/>
</linearGradient>
</defs>
</svg>
