<svg width="392" height="281" viewBox="0 0 392 281" fill="none" xmlns="http://www.w3.org/2000/svg">
<g filter="url(#filter0_f)">
<path d="M167.175 218.827C168.855 218.846 185.904 245.465 185.904 255.808C185.904 258.268 185.42 260.703 184.479 262.975C183.538 265.248 182.158 267.313 180.419 269.052C176.907 272.564 172.143 274.538 167.176 274.538C162.209 274.538 157.445 272.565 153.932 269.052C150.42 265.54 148.446 260.776 148.446 255.809C148.446 245.465 165.495 218.809 167.175 218.827Z" fill="#42A0F0"/>
<path d="M152.895 262.811C154.767 263.383 157.145 261.029 158.208 257.554C159.27 254.078 158.615 250.796 156.744 250.224C154.872 249.652 152.494 252.006 151.431 255.482C150.369 258.958 151.024 262.239 152.895 262.811Z" fill="white"/>
<path d="M111.4 177C113.14 177.019 130.8 204.588 130.8 215.3C130.8 220.445 128.756 225.38 125.118 229.018C121.48 232.656 116.545 234.7 111.4 234.7C106.255 234.7 101.32 232.656 97.6821 229.018C94.0439 225.38 92 220.445 92 215.3C92 204.588 109.657 176.981 111.4 177Z" fill="#42A0F0"/>
<path d="M96.6086 222.552C98.5469 223.144 101.01 220.707 102.111 217.108C103.211 213.508 102.532 210.11 100.594 209.517C98.6553 208.925 96.1919 211.362 95.0915 214.962C93.991 218.561 94.6703 221.959 96.6086 222.552Z" fill="white"/>
</g>
<g filter="url(#filter1_f)">
<path d="M356.633 183.295V192.143" stroke="#42A0F0" stroke-linecap="round"/>
<path d="M356.439 185.454L357.878 184.734" stroke="#42A0F0" stroke-linecap="round"/>
<path d="M356.44 185.454L354.281 184.734" stroke="#42A0F0" stroke-linecap="round"/>
<path d="M356.439 190.492L357.878 191.212" stroke="#42A0F0" stroke-linecap="round"/>
<path d="M356.44 190.492L354.281 191.212" stroke="#42A0F0" stroke-linecap="round"/>
<path d="M360.439 185.544L352.777 189.968" stroke="#42A0F0" stroke-linecap="round"/>
<path d="M358.558 186.61L360.682 187.143" stroke="#42A0F0" stroke-linecap="round"/>
<path d="M358.557 186.61L359.133 184.461" stroke="#42A0F0" stroke-linecap="round"/>
<path d="M354.471 188.97L353.87 191.076" stroke="#42A0F0" stroke-linecap="round"/>
<path d="M354.47 188.97L352.321 188.394" stroke="#42A0F0" stroke-linecap="round"/>
<path d="M360.398 189.968L352.736 185.544" stroke="#42A0F0" stroke-linecap="round"/>
<path d="M358.532 188.871L359.133 190.977" stroke="#42A0F0" stroke-linecap="round"/>
<path d="M358.533 188.871L360.682 188.295" stroke="#42A0F0" stroke-linecap="round"/>
<path d="M354.445 186.511L352.321 187.044" stroke="#42A0F0" stroke-linecap="round"/>
<path d="M354.446 186.511L353.87 184.362" stroke="#42A0F0" stroke-linecap="round"/>
</g>
<g filter="url(#filter2_f)">
<path d="M327.701 134.885V150.053" stroke="#42A0F0" stroke-linecap="round"/>
<path d="M327.07 138.326L329.949 137.606" stroke="#42A0F0" stroke-linecap="round"/>
<path d="M327.07 138.326L323.471 137.606" stroke="#42A0F0" stroke-linecap="round"/>
<path d="M327.07 146.962L329.949 148.401" stroke="#42A0F0" stroke-linecap="round"/>
<path d="M327.07 146.962L323.471 148.401" stroke="#42A0F0" stroke-linecap="round"/>
<path d="M334.234 138.74L321.099 146.324" stroke="#42A0F0" stroke-linecap="round"/>
<path d="M331.009 140.566L334.65 141.48" stroke="#42A0F0" stroke-linecap="round"/>
<path d="M331.009 140.566L331.996 136.883" stroke="#42A0F0" stroke-linecap="round"/>
<path d="M324.002 144.611L322.973 148.221" stroke="#42A0F0" stroke-linecap="round"/>
<path d="M324.002 144.611L320.319 143.624" stroke="#42A0F0" stroke-linecap="round"/>
<path d="M334.16 146.324L321.024 138.74" stroke="#42A0F0" stroke-linecap="round"/>
<path d="M330.966 144.444L331.995 148.054" stroke="#42A0F0" stroke-linecap="round"/>
<path d="M330.966 144.443L334.648 143.457" stroke="#42A0F0" stroke-linecap="round"/>
<path d="M323.959 140.398L320.318 141.312" stroke="#42A0F0" stroke-linecap="round"/>
<path d="M323.959 140.398L322.972 136.715" stroke="#42A0F0" stroke-linecap="round"/>
</g>
<g filter="url(#filter3_f)">
<path d="M220.358 228.438V240.891" stroke="#42A0F0" stroke-linecap="round"/>
<path d="M219.713 231.159L221.872 230.439" stroke="#42A0F0" stroke-linecap="round"/>
<path d="M219.713 231.159L216.834 230.439" stroke="#42A0F0" stroke-linecap="round"/>
<path d="M219.713 238.356L221.872 239.795" stroke="#42A0F0" stroke-linecap="round"/>
<path d="M219.713 238.356L216.834 239.795" stroke="#42A0F0" stroke-linecap="round"/>
<path d="M225.719 231.604L214.934 237.83" stroke="#42A0F0" stroke-linecap="round"/>
<path d="M223.071 233.103L226.061 233.854" stroke="#42A0F0" stroke-linecap="round"/>
<path d="M223.07 233.103L223.881 230.079" stroke="#42A0F0" stroke-linecap="round"/>
<path d="M217.319 236.424L216.474 239.388" stroke="#42A0F0" stroke-linecap="round"/>
<path d="M217.319 236.424L214.295 235.614" stroke="#42A0F0" stroke-linecap="round"/>
<path d="M225.66 237.83L214.876 231.604" stroke="#42A0F0" stroke-linecap="round"/>
<path d="M223.036 236.286L223.881 239.25" stroke="#42A0F0" stroke-linecap="round"/>
<path d="M223.036 236.286L226.061 235.476" stroke="#42A0F0" stroke-linecap="round"/>
<path d="M217.284 232.965L214.294 233.715" stroke="#42A0F0" stroke-linecap="round"/>
<path d="M217.285 232.965L216.474 229.941" stroke="#42A0F0" stroke-linecap="round"/>
</g>
<g filter="url(#filter4_f)">
<path d="M251.711 254.166V263.063" stroke="#42A0F0" stroke-linecap="round"/>
<path d="M251.492 256.167L252.931 255.447" stroke="#42A0F0" stroke-linecap="round"/>
<path d="M251.493 256.167L249.334 255.447" stroke="#42A0F0" stroke-linecap="round"/>
<path d="M251.492 261.205L252.931 261.925" stroke="#42A0F0" stroke-linecap="round"/>
<path d="M251.493 261.205L249.334 261.925" stroke="#42A0F0" stroke-linecap="round"/>
<path d="M255.539 256.427L247.834 260.875" stroke="#42A0F0" stroke-linecap="round"/>
<path d="M253.648 257.5L255.784 258.036" stroke="#42A0F0" stroke-linecap="round"/>
<path d="M253.648 257.5L254.227 255.339" stroke="#42A0F0" stroke-linecap="round"/>
<path d="M249.539 259.872L248.935 261.99" stroke="#42A0F0" stroke-linecap="round"/>
<path d="M249.539 259.872L247.378 259.293" stroke="#42A0F0" stroke-linecap="round"/>
<path d="M255.498 260.875L247.793 256.426" stroke="#42A0F0" stroke-linecap="round"/>
<path d="M253.622 259.772L254.226 261.89" stroke="#42A0F0" stroke-linecap="round"/>
<path d="M253.622 259.772L255.783 259.193" stroke="#42A0F0" stroke-linecap="round"/>
<path d="M249.514 257.4L247.378 257.936" stroke="#42A0F0" stroke-linecap="round"/>
<path d="M249.514 257.4L248.935 255.239" stroke="#42A0F0" stroke-linecap="round"/>
</g>
<g filter="url(#filter5_f)">
<path d="M334.684 216.54V274.602" stroke="#42A0F0" stroke-width="4" stroke-linecap="round"/>
<path d="M334.568 230.733L344.568 220.411" stroke="#42A0F0" stroke-width="4" stroke-linecap="round"/>
<path d="M334.568 230.733L324.246 220.411" stroke="#42A0F0" stroke-width="4" stroke-linecap="round"/>
<path d="M334.568 261.7L344.568 272.022" stroke="#42A0F0" stroke-width="4" stroke-linecap="round"/>
<path d="M334.568 261.7L324.246 272.022" stroke="#42A0F0" stroke-width="4" stroke-linecap="round"/>
<path d="M359.688 231.296L309.404 260.327" stroke="#42A0F0" stroke-width="4" stroke-linecap="round"/>
<path d="M347.338 238.292L361.277 241.791" stroke="#42A0F0" stroke-width="4" stroke-linecap="round"/>
<path d="M347.339 238.292L351.117 224.191" stroke="#42A0F0" stroke-width="4" stroke-linecap="round"/>
<path d="M320.52 253.775L316.58 267.597" stroke="#42A0F0" stroke-width="4" stroke-linecap="round"/>
<path d="M320.52 253.775L306.42 249.997" stroke="#42A0F0" stroke-width="4" stroke-linecap="round"/>
<path d="M359.41 260.327L309.127 231.296" stroke="#42A0F0" stroke-width="4" stroke-linecap="round"/>
<path d="M347.178 253.13L351.117 266.951" stroke="#42A0F0" stroke-width="4" stroke-linecap="round"/>
<path d="M347.177 253.13L361.277 249.352" stroke="#42A0F0" stroke-width="4" stroke-linecap="round"/>
<path d="M320.359 237.646L306.42 241.146" stroke="#42A0F0" stroke-width="4" stroke-linecap="round"/>
<path d="M320.359 237.646L316.58 223.546" stroke="#42A0F0" stroke-width="4" stroke-linecap="round"/>
<path d="M268.902 150.003V208.065" stroke="#42A0F0" stroke-width="4" stroke-linecap="round"/>
<path d="M268.787 164.196L278.787 153.874" stroke="#42A0F0" stroke-width="4" stroke-linecap="round"/>
<path d="M268.787 164.196L258.465 153.874" stroke="#42A0F0" stroke-width="4" stroke-linecap="round"/>
<path d="M268.787 195.163L278.787 205.485" stroke="#42A0F0" stroke-width="4" stroke-linecap="round"/>
<path d="M268.787 195.163L258.465 205.485" stroke="#42A0F0" stroke-width="4" stroke-linecap="round"/>
<path d="M293.906 164.759L243.623 193.79" stroke="#42A0F0" stroke-width="4" stroke-linecap="round"/>
<path d="M281.557 171.755L295.496 175.254" stroke="#42A0F0" stroke-width="4" stroke-linecap="round"/>
<path d="M281.558 171.754L285.336 157.654" stroke="#42A0F0" stroke-width="4" stroke-linecap="round"/>
<path d="M254.738 187.238L250.799 201.06" stroke="#42A0F0" stroke-width="4" stroke-linecap="round"/>
<path d="M254.739 187.238L240.639 183.46" stroke="#42A0F0" stroke-width="4" stroke-linecap="round"/>
<path d="M293.629 193.79L243.346 164.759" stroke="#42A0F0" stroke-width="4" stroke-linecap="round"/>
<path d="M281.397 186.593L285.336 200.414" stroke="#42A0F0" stroke-width="4" stroke-linecap="round"/>
<path d="M281.396 186.593L295.496 182.814" stroke="#42A0F0" stroke-width="4" stroke-linecap="round"/>
<path d="M254.578 171.109L240.639 174.609" stroke="#42A0F0" stroke-width="4" stroke-linecap="round"/>
<path d="M254.577 171.109L250.799 157.009" stroke="#42A0F0" stroke-width="4" stroke-linecap="round"/>
</g>
<g filter="url(#filter6_df)">
<g filter="url(#filter7_d)">
<path d="M235.562 233.765C233.629 233.92 231.676 233.999 229.705 234H92.1812C82.7149 234.035 73.3348 232.201 64.579 228.603C55.8232 225.005 47.8639 219.714 41.1577 213.032C34.4516 206.351 29.1305 198.412 25.4997 189.669C21.869 180.927 20 171.554 20 162.087C20 152.621 21.869 143.248 25.4997 134.506C29.1305 125.763 34.4516 117.824 41.1577 111.143C47.8639 104.461 55.8232 99.17 64.579 95.5718C73.3348 91.9737 82.7149 90.1397 92.1812 90.175H143.456C160.08 53.6 198.368 28 242.941 28C302.768 28 351.268 74.115 351.268 131C351.268 187.885 302.768 234 242.941 234C240.461 234 238.001 233.922 235.562 233.765Z" fill="url(#paint0_linear)"/>
<path d="M242.941 233C250.227 233 257.508 232.302 264.582 230.926C271.475 229.585 278.255 227.584 284.734 224.978C291.095 222.42 297.229 219.254 302.968 215.568C308.651 211.917 313.995 207.725 318.851 203.107C323.707 198.49 328.115 193.411 331.953 188.009C335.827 182.557 339.154 176.728 341.842 170.686C344.579 164.532 346.682 158.093 348.09 151.547C349.536 144.831 350.269 137.917 350.269 131C350.269 124.082 349.536 117.169 348.09 110.452C346.682 103.906 344.579 97.4673 341.842 91.3142C339.154 85.2716 335.827 79.4433 331.953 73.991C328.115 68.5893 323.707 63.5095 318.851 58.8928C313.995 54.2752 308.651 50.0829 302.968 46.4323C297.229 42.7461 291.095 39.5801 284.734 37.0221C278.255 34.4165 271.475 32.4154 264.582 31.0742C257.508 29.6979 250.227 29 242.941 29C221.57 29 200.931 34.9523 183.255 46.2135C174.734 51.6418 167.077 58.1939 160.497 65.6878C153.876 73.2291 148.449 81.6069 144.367 90.5885L144.1 91.1747H143.456H92.1812C82.6077 91.1747 73.321 93.0495 64.5792 96.747C60.3776 98.5242 56.325 100.724 52.5341 103.285C48.7789 105.822 45.2477 108.735 42.0385 111.945C38.8293 115.154 35.9157 118.685 33.3788 122.44C30.8177 126.231 28.618 130.284 26.8408 134.485C23.1433 143.227 21.2686 152.514 21.2686 162.087C21.2686 171.661 23.1433 180.948 26.8408 189.689C28.618 193.891 30.8177 197.944 33.3788 201.735C35.9157 205.49 38.8293 209.021 42.0385 212.23C45.2477 215.439 48.7789 218.353 52.5341 220.89C56.325 223.451 60.3776 225.651 64.5792 227.428C73.321 231.125 82.6077 233 92.1812 233H229.706C231.629 233 233.572 232.922 235.483 232.768L235.555 232.762L235.627 232.767C238.046 232.922 240.507 233 242.941 233ZM242.941 234C240.462 234 238.001 233.921 235.563 233.765C233.632 233.92 231.676 234 229.706 234H92.1812C52.4651 234 20.2686 201.803 20.2686 162.087C20.2686 122.371 52.4651 90.1747 92.1812 90.1747H143.456C160.081 53.5954 198.366 28 242.941 28C302.769 28 351.269 74.1151 351.269 131C351.269 187.885 302.769 234 242.941 234Z" fill="white" fill-opacity="0.5"/>
</g>
</g>
<defs>
<filter id="filter0_f" x="88" y="173" width="101.904" height="105.538" filterUnits="userSpaceOnUse" color-interpolation-filters="sRGB">
<feFlood flood-opacity="0" result="BackgroundImageFix"/>
<feBlend mode="normal" in="SourceGraphic" in2="BackgroundImageFix" result="shape"/>
<feGaussianBlur stdDeviation="2" result="effect1_foregroundBlur"/>
</filter>
<filter id="filter1_f" x="349.639" y="180.795" width="13.7266" height="13.848" filterUnits="userSpaceOnUse" color-interpolation-filters="sRGB">
<feFlood flood-opacity="0" result="BackgroundImageFix"/>
<feBlend mode="normal" in="SourceGraphic" in2="BackgroundImageFix" result="shape"/>
<feGaussianBlur stdDeviation="1" result="effect1_foregroundBlur"/>
</filter>
<filter id="filter2_f" x="317.635" y="132.385" width="19.6982" height="20.168" filterUnits="userSpaceOnUse" color-interpolation-filters="sRGB">
<feFlood flood-opacity="0" result="BackgroundImageFix"/>
<feBlend mode="normal" in="SourceGraphic" in2="BackgroundImageFix" result="shape"/>
<feGaussianBlur stdDeviation="1" result="effect1_foregroundBlur"/>
</filter>
<filter id="filter3_f" x="211.611" y="225.938" width="17.1333" height="17.453" filterUnits="userSpaceOnUse" color-interpolation-filters="sRGB">
<feFlood flood-opacity="0" result="BackgroundImageFix"/>
<feBlend mode="normal" in="SourceGraphic" in2="BackgroundImageFix" result="shape"/>
<feGaussianBlur stdDeviation="1" result="effect1_foregroundBlur"/>
</filter>
<filter id="filter4_f" x="244.695" y="251.666" width="13.7716" height="13.897" filterUnits="userSpaceOnUse" color-interpolation-filters="sRGB">
<feFlood flood-opacity="0" result="BackgroundImageFix"/>
<feBlend mode="normal" in="SourceGraphic" in2="BackgroundImageFix" result="shape"/>
<feGaussianBlur stdDeviation="1" result="effect1_foregroundBlur"/>
</filter>
<filter id="filter5_f" x="233.906" y="144.003" width="134.103" height="136.599" filterUnits="userSpaceOnUse" color-interpolation-filters="sRGB">
<feFlood flood-opacity="0" result="BackgroundImageFix"/>
<feBlend mode="normal" in="SourceGraphic" in2="BackgroundImageFix" result="shape"/>
<feGaussianBlur stdDeviation="2" result="effect1_foregroundBlur"/>
</filter>
<filter id="filter6_df" x="0" y="0" width="391.269" height="266.001" filterUnits="userSpaceOnUse" color-interpolation-filters="sRGB">
<feFlood flood-opacity="0" result="BackgroundImageFix"/>
<feColorMatrix in="SourceAlpha" type="matrix" values="0 0 0 0 0 0 0 0 0 0 0 0 0 0 0 0 0 0 127 0"/>
<feOffset dx="10" dy="2"/>
<feGaussianBlur stdDeviation="15"/>
<feColorMatrix type="matrix" values="0 0 0 0 0.258824 0 0 0 0 0.627451 0 0 0 0 0.941176 0 0 0 0.596 0"/>
<feBlend mode="normal" in2="BackgroundImageFix" result="effect1_dropShadow"/>
<feBlend mode="normal" in="SourceGraphic" in2="effect1_dropShadow" result="shape"/>
<feGaussianBlur stdDeviation="2" result="effect2_foregroundBlur"/>
</filter>
<filter id="filter7_d" x="0" y="0" width="391.269" height="266.001" filterUnits="userSpaceOnUse" color-interpolation-filters="sRGB">
<feFlood flood-opacity="0" result="BackgroundImageFix"/>
<feColorMatrix in="SourceAlpha" type="matrix" values="0 0 0 0 0 0 0 0 0 0 0 0 0 0 0 0 0 0 127 0"/>
<feOffset dx="10" dy="2"/>
<feGaussianBlur stdDeviation="15"/>
<feColorMatrix type="matrix" values="0 0 0 0 0.501961 0 0 0 0 0.501961 0 0 0 0 0.501961 0 0 0 0.302 0"/>
<feBlend mode="normal" in2="BackgroundImageFix" result="effect1_dropShadow"/>
<feBlend mode="normal" in="SourceGraphic" in2="effect1_dropShadow" result="shape"/>
</filter>
<linearGradient id="paint0_linear" x1="154.164" y1="53.9561" x2="220.206" y2="245.168" gradientUnits="userSpaceOnUse">
<stop stop-color="white" stop-opacity="0.596"/>
<stop offset="1" stop-color="#F7F7F7" stop-opacity="0.204"/>
</linearGradient>
</defs>
</svg>
