<svg width="392" height="334" viewBox="0 0 392 334" fill="none" xmlns="http://www.w3.org/2000/svg">
<g filter="url(#filter0_f)">
<path d="M124.054 202.835C124.583 203.318 113.514 227.126 107.082 234.526C100.65 241.925 92.7412 245.575 89.4144 242.683C86.0877 239.792 88.6014 231.452 95.0341 224.052C101.467 216.652 123.526 202.351 124.054 202.835Z" fill="#42A0F0"/>
<path d="M96.1794 229.023C96.8256 230.057 99.0626 229.825 101.176 228.505C103.289 227.184 104.478 225.275 103.832 224.241C103.186 223.207 100.949 223.439 98.8357 224.76C96.7225 226.08 95.5332 227.989 96.1794 229.023Z" fill="white"/>
<path d="M192.054 202.835C192.583 203.318 181.514 227.126 175.082 234.526C168.65 241.925 160.741 245.575 157.414 242.683C154.088 239.792 156.601 231.452 163.034 224.052C169.467 216.652 191.526 202.351 192.054 202.835Z" fill="#42A0F0"/>
<path d="M164.179 229.023C164.826 230.057 167.063 229.825 169.176 228.505C171.289 227.184 172.478 225.275 171.832 224.241C171.186 223.207 168.949 223.439 166.836 224.76C164.722 226.08 163.533 227.989 164.179 229.023Z" fill="white"/>
<path d="M200.054 252.835C200.583 253.318 189.514 277.126 183.082 284.526C176.65 291.925 168.741 295.575 165.414 292.683C162.088 289.792 164.601 281.452 171.034 274.052C177.467 266.652 199.526 252.351 200.054 252.835Z" fill="#42A0F0"/>
<path d="M172.179 279.023C172.826 280.057 175.063 279.825 177.176 278.505C179.289 277.184 180.478 275.275 179.832 274.241C179.186 273.207 176.949 273.439 174.836 274.76C172.722 276.08 171.533 277.989 172.179 279.023Z" fill="white"/>
<path d="M283.054 252.835C283.583 253.318 272.514 277.126 266.082 284.526C259.65 291.925 251.741 295.575 248.414 292.683C245.088 289.792 247.601 281.452 254.034 274.052C260.467 266.652 282.526 252.351 283.054 252.835Z" fill="#42A0F0"/>
<path d="M255.179 279.023C255.826 280.057 258.063 279.825 260.176 278.505C262.289 277.184 263.478 275.275 262.832 274.241C262.186 273.207 259.949 273.439 257.836 274.76C255.722 276.08 254.533 277.989 255.179 279.023Z" fill="white"/>
<path d="M223.054 288.835C223.583 289.318 212.514 313.126 206.082 320.526C199.65 327.925 191.741 331.575 188.414 328.683C185.088 325.792 187.601 317.452 194.034 310.052C200.467 302.652 222.526 288.351 223.054 288.835Z" fill="#42A0F0"/>
<path d="M195.179 315.023C195.826 316.057 198.063 315.825 200.176 314.505C202.289 313.184 203.478 311.275 202.832 310.241C202.186 309.207 199.949 309.439 197.836 310.76C195.722 312.08 194.533 313.989 195.179 315.023Z" fill="white"/>
<path d="M147.054 288.835C147.583 289.318 136.514 313.126 130.082 320.526C123.65 327.925 115.741 331.575 112.414 328.683C109.088 325.792 111.601 317.452 118.034 310.052C124.467 302.652 146.526 288.351 147.054 288.835Z" fill="#42A0F0"/>
<path d="M119.179 315.023C119.826 316.057 122.063 315.825 124.176 314.505C126.289 313.184 127.478 311.275 126.832 310.241C126.186 309.207 123.949 309.439 121.836 310.76C119.722 312.08 118.533 313.989 119.179 315.023Z" fill="white"/>
</g>
<path d="M113.787 245.557H134.337L122.523 262.905L136.336 263.167L107.348 297.481L114.368 271.319H101.508L113.787 245.557Z" fill="url(#paint0_linear)"/>
<path d="M233.787 214.557H254.337L242.523 231.905L256.336 232.167L227.348 266.481L234.368 240.319H221.508L233.787 214.557Z" fill="url(#paint1_linear)"/>
<g filter="url(#filter1_df)">
<g filter="url(#filter2_d)">
<path d="M235.562 233.765C233.629 233.92 231.676 233.999 229.705 234H92.1812C82.7149 234.035 73.3348 232.201 64.579 228.603C55.8232 225.005 47.8639 219.714 41.1577 213.032C34.4516 206.351 29.1305 198.412 25.4997 189.669C21.869 180.927 20 171.554 20 162.087C20 152.621 21.869 143.248 25.4997 134.506C29.1305 125.763 34.4516 117.824 41.1577 111.143C47.8639 104.461 55.8232 99.17 64.579 95.5718C73.3348 91.9737 82.7149 90.1397 92.1812 90.175H143.456C160.081 53.6 198.368 28 242.941 28C302.768 28 351.268 74.115 351.268 131C351.268 187.885 302.768 234 242.941 234C240.461 234 238.001 233.922 235.562 233.765Z" fill="url(#paint2_linear)"/>
<path d="M242.941 233C250.227 233 257.508 232.302 264.582 230.926C271.475 229.585 278.255 227.584 284.734 224.978C291.095 222.42 297.229 219.254 302.968 215.568C308.651 211.917 313.995 207.725 318.851 203.108C323.707 198.491 328.115 193.411 331.953 188.009C335.827 182.557 339.154 176.729 341.842 170.686C344.579 164.533 346.682 158.094 348.09 151.548C349.536 144.832 350.269 137.918 350.269 131C350.269 124.083 349.536 117.169 348.09 110.453C346.682 103.907 344.579 97.4678 341.842 91.3146C339.154 85.272 335.827 79.4435 331.953 73.9912C328.115 68.5895 323.707 63.5097 318.851 58.8929C313.995 54.2753 308.651 50.083 302.968 46.4323C297.229 42.7462 291.095 39.5801 284.734 37.0221C278.255 34.4165 271.475 32.4154 264.582 31.0742C257.508 29.6979 250.227 29 242.941 29C221.57 29 200.931 34.9523 183.255 46.2134C174.734 51.6416 167.078 58.1937 160.498 65.6877C153.876 73.229 148.449 81.6068 144.367 90.5885L144.1 91.1747H143.456H92.1812C82.6077 91.1747 73.321 93.0495 64.5792 96.747C60.3776 98.5242 56.325 100.724 52.5341 103.285C48.7789 105.822 45.2477 108.735 42.0385 111.945C38.8293 115.154 35.9157 118.685 33.3788 122.44C30.8177 126.231 28.618 130.284 26.8408 134.485C23.1433 143.227 21.2686 152.514 21.2686 162.087C21.2686 171.661 23.1433 180.948 26.8408 189.689C28.618 193.891 30.8177 197.944 33.3788 201.735C35.9157 205.49 38.8293 209.021 42.0385 212.23C45.2477 215.439 48.7789 218.353 52.5341 220.89C56.325 223.451 60.3776 225.651 64.5792 227.428C73.321 231.125 82.6077 233 92.1812 233H229.706C231.629 233 233.572 232.922 235.483 232.768L235.555 232.762L235.627 232.767C238.046 232.922 240.507 233 242.941 233ZM242.941 234C240.462 234 238.001 233.921 235.563 233.765C233.632 233.92 231.676 234 229.706 234H92.1812C52.4651 234 20.2686 201.803 20.2686 162.087C20.2686 122.371 52.4651 90.1747 92.1812 90.1747H143.456C160.081 53.595 198.366 28 242.941 28C302.769 28 351.269 74.1151 351.269 131C351.269 187.886 302.769 234 242.941 234Z" fill="white" fill-opacity="0.5"/>
</g>
</g>
<defs>
<filter id="filter0_f" x="83.9453" y="198.823" width="203.127" height="134.852" filterUnits="userSpaceOnUse" color-interpolation-filters="sRGB">
<feFlood flood-opacity="0" result="BackgroundImageFix"/>
<feBlend mode="normal" in="SourceGraphic" in2="BackgroundImageFix" result="shape"/>
<feGaussianBlur stdDeviation="2" result="effect1_foregroundBlur"/>
</filter>
<filter id="filter1_df" x="0" y="0" width="391.269" height="266.001" filterUnits="userSpaceOnUse" color-interpolation-filters="sRGB">
<feFlood flood-opacity="0" result="BackgroundImageFix"/>
<feColorMatrix in="SourceAlpha" type="matrix" values="0 0 0 0 0 0 0 0 0 0 0 0 0 0 0 0 0 0 127 0"/>
<feOffset dx="10" dy="2"/>
<feGaussianBlur stdDeviation="15"/>
<feColorMatrix type="matrix" values="0 0 0 0 0.258824 0 0 0 0 0.627451 0 0 0 0 0.941176 0 0 0 0.596 0"/>
<feBlend mode="normal" in2="BackgroundImageFix" result="effect1_dropShadow"/>
<feBlend mode="normal" in="SourceGraphic" in2="effect1_dropShadow" result="shape"/>
<feGaussianBlur stdDeviation="2" result="effect2_foregroundBlur"/>
</filter>
<filter id="filter2_d" x="0" y="0" width="391.269" height="266.001" filterUnits="userSpaceOnUse" color-interpolation-filters="sRGB">
<feFlood flood-opacity="0" result="BackgroundImageFix"/>
<feColorMatrix in="SourceAlpha" type="matrix" values="0 0 0 0 0 0 0 0 0 0 0 0 0 0 0 0 0 0 127 0"/>
<feOffset dx="10" dy="2"/>
<feGaussianBlur stdDeviation="15"/>
<feColorMatrix type="matrix" values="0 0 0 0 0.501961 0 0 0 0 0.501961 0 0 0 0 0.501961 0 0 0 0.302 0"/>
<feBlend mode="normal" in2="BackgroundImageFix" result="effect1_dropShadow"/>
<feBlend mode="normal" in="SourceGraphic" in2="effect1_dropShadow" result="shape"/>
</filter>
<linearGradient id="paint0_linear" x1="115.718" y1="271.519" x2="99.4493" y2="265.555" gradientUnits="userSpaceOnUse">
<stop stop-color="#FFD100"/>
<stop offset="1" stop-color="#FFF0AA"/>
</linearGradient>
<linearGradient id="paint1_linear" x1="235.718" y1="240.519" x2="219.449" y2="234.555" gradientUnits="userSpaceOnUse">
<stop stop-color="#FFD100"/>
<stop offset="1" stop-color="#FFF0AA"/>
</linearGradient>
<linearGradient id="paint2_linear" x1="154.164" y1="53.9561" x2="220.206" y2="245.168" gradientUnits="userSpaceOnUse">
<stop stop-color="white" stop-opacity="0.596"/>
<stop offset="1" stop-color="#F7F7F7" stop-opacity="0.204"/>
</linearGradient>
</defs>
</svg>
